#!OML:ASF F:\VICON\USERDATA\INSTALL\rory3\rory3.ASF
:FULLY-SPECIFIED
:DEGREES
402
root -0.0253428 15.1867 -10.339 -156.926 -7.72223 -179.532
lowerback -6.05933 -1.6917 0.0989863
upperback -6.32587 -2.77237 1.925
thorax -3.04751 -1.58623 1.85006
lowerneck -24.1623 0.0609919 -1.53702
upperneck 25.3737 -0.0882362 0.975804
head 12.4256 -0.235134 0.574724
rclavicle 2.88238e-015 1.63003e-014
rhumerus -368.014 6.91706 264.376
rradius 28.8151
rwrist -41.6308
rhand -5.69552 367.415
rfingers 7.12502
rthumb 20.125 -21.5625
lclavicle 2.88238e-015 1.63003e-014
lhumerus -0.965787 -42.6976 105.295
lradius 32.9448
lwrist 0.990871
lhand -3.63719 19.6901
lfingers 7.12502
lthumb 22.1023 48.4469
rfemur 104.214 -173.017 -156.777
rtibia 57.143
rfoot 1.1069 -12.2267
rtoes 13.843
lfemur -3.50362 -10.1064 -23.0841
ltibia 34.7781
lfoot -32.9914 25.0897
ltoes -38.23
403
root -0.0107791 15.2104 -10.6168 -156.544 -8.31978 -178.902
lowerback -6.88507 -1.63842 1.3023
upperback -7.16423 -2.90249 1.99176
thorax -3.51651 -1.76522 1.24123
lowerneck -23.4919 0.18992 -1.75727
upperneck 26.1705 -0.0670336 1.34052
head 12.6099 -0.247179 0.747812
rclavicle 5.61567e-015 8.15017e-015
rhumerus -367.921 10.8599 263.04
rradius 30.8823
rwrist -44.512
rhand -4.95477 366.695
rfingers 7.12502
rthumb 20.8369 -22.2062
lclavicle 5.61567e-015 8.15017e-015
lhumerus 0.734157 -46.5863 104.421
lradius 35.8506
lwrist 5.35152
lhand -3.23691 20.7948
lfingers 7.12502
lthumb 22.4866 49.5055
rfemur 104.618 -172.356 -155.43
rtibia 57.7687
rfoot -0.457934 -11.2062
rtoes 10.9805
lfemur -3.64155 -10.7068 -22.1785
ltibia 35.616
lfoot -31.4444 25.0477
ltoes -37.2483
404
root 0.0376081 15.2259 -10.8971 -156.093 -7.89778 -178.668
lowerback -8.13077 -1.48043 1.26034
upperback -7.8018 -2.86174 1.98524
thorax -3.49799 -1.81144 1.23135
lowerneck -22.6558 0.44246 -1.59183
upperneck 26.8286 0.0604541 1.41634
head 12.7039 -0.217027 0.762192
rclavicle 1.77788e-014 3.97569e-016
rhumerus -367.102 13.0966 261.901
rradius 32.3312
rwrist -44.2413
rhand -2.18946 366.754
rfingers 7.12502
rthumb 23.4917 -21.8316
lclavicle 1.77788e-014 3.97569e-016
lhumerus 3.19368 -50.0916 102.581
lradius 38.682
lwrist 9.11404
lhand -2.97811 21.6237
lfingers 7.12502
lthumb 22.735 50.3043
rfemur 105.1 -173.03 -155.146
rtibia 58.0031
rfoot -2.06772 -11.1557
rtoes 11.3399
lfemur -4.22029 -10.5063 -21.9201
ltibia 36.8521
lfoot -29.2017 25.868
ltoes -34.4858
405
root 0.0905614 15.2504 -11.1867 -155.87 -7.40176 -178.622
lowerback -8.8166 -1.24315 1.00109
upperback -8.45681 -2.68473 1.92435
thorax -3.80813 -1.77714 1.32149
lowerneck -22.4092 0.484749 -1.77692
upperneck 27.8314 -0.0166556 1.58275
head 13.0628 -0.306616 0.838249
rclavicle -1.81391e-015 1.88845e-014
rhumerus -366.701 17.2393 260.928
rradius 35.9563
rwrist -50.9554
rhand -4.46864 365.195
rfingers 7.12502
rthumb 21.3039 -23.6543
lclavicle -1.81391e-015 1.88845e-014
lhumerus 5.79137 -52.8674 100.703
lradius 41.5187
lwrist 12.1911
lhand -2.40835 22.5067
lfingers 7.12502
lthumb 23.2817 51.1191
rfemur 106.038 -173.807 -155.192
rtibia 57.9568
rfoot -3.64179 -11.2539
rtoes 10.4824
lfemur -4.50172 -10.2217 -21.9028
ltibia 37.8742
lfoot -27.3238 26.1539
ltoes -30.0764
406
root 0.293794 15.2147 -11.473 -154.844 -3.11392 -178.166
lowerback -10.3799 -0.156941 -2.16697
upperback -9.51905 -1.35426 1.98188
thorax -4.07351 -1.07199 3.23482
lowerneck -21.1772 0.721836 -1.40994
upperneck 28.7015 -0.10146 1.70996
head 13.1688 -0.376173 0.793731
rclavicle -1.13059e-015 2.68359e-015
rhumerus -366.573 19.3356 259.663
rradius 37.9612
rwrist -54.0749
rhand -3.05966 362.972
rfingers 7.12502
rthumb 22.6567 -25.7184
lclavicle -1.13059e-015 2.68359e-015
lhumerus 7.85203 -55.0324 98.656
lradius 44.2932
lwrist 14.7721
lhand -1.73697 23.3768
lfingers 7.12502
lthumb 23.9257 51.9062
rfemur 105.675 -180.043 -157.063
rtibia 57.3957
rfoot -3.79806 -13.396
rtoes 10.8166
lfemur -5.99886 -7.17421 -22.5486
ltibia 38.7986
lfoot -27.4725 25.4259
ltoes -23.0861
407
root 0.346938 15.3308 -11.7676 -155.708 -3.55614 -176.655
lowerback -10.8049 0.000791403 -0.752131
upperback -9.06289 -1.1788 2.37079
thorax -3.36434 -1.03418 2.83309
lowerneck -22.081 0.646974 -1.53782
upperneck 29.331 -0.217822 1.83477
head 13.6255 -0.428678 0.849783
rclavicle -4.47266e-016 -4.17448e-015
rhumerus -364.128 21.4741 260.007
rradius 39.7676
rwrist -56.0238
rhand -3.98878 370.775
rfingers 7.12502
rthumb 21.7647 -18.0213
lclavicle -4.47266e-016 -4.17448e-015
lhumerus 14.5694 -57.7167 92.7894
lradius 47.1557
lwrist 17.4624
lhand -1.47918 24.7399
lfingers 7.12502
lthumb 24.1728 53.2367
rfemur 108.367 -180.622 -155.226
rtibia 56.8125
rfoot -5.58681 -13.8115
rtoes 7.68339
lfemur -5.11664 -6.45744 -20.5931
ltibia 39.0663
lfoot -25.0695 26.2234
ltoes -17.6275
408
root 0.357182 15.4545 -12.0614 -156.618 -5.07599 -176.234
lowerback -11.0914 -0.392289 0.37702
upperback -8.98497 -1.78891 2.50884
thorax -3.10988 -1.39249 2.28243
lowerneck -21.6052 0.822876 -1.37373
upperneck 29.7157 -0.12173 1.79832
head 13.6862 -0.413978 0.816783
rclavicle -5.23518e-015 -6.85807e-015
rhumerus -362.485 24.4755 260.188
rradius 41.9628
rwrist -58.3441
rhand 1.56002 362.682
rfingers 7.12502
rthumb 27.0837 -25.3955
lclavicle -5.23518e-015 -6.85807e-015
lhumerus 20.6798 -59.7014 86.9211
lradius 49.9256
lwrist 20.0634
lhand -2.4648 25.3832
lfingers 7.12502
lthumb 23.2275 54.0025
rfemur 111.152 -179.286 -153.902
rtibia 56.4935
rfoot -6.5563 -13.7357
rtoes 9.57075
lfemur -4.01739 -6.62508 -19.348
ltibia 39.0243
lfoot -21.9978 27.2916
ltoes -14.8294
